<?xml version="1.0" standalone="no"?>
<!DOCTYPE svg PUBLIC "-//W3C//DTD SVG 20010904//EN"
 "http://www.w3.org/TR/2001/REC-SVG-20010904/DTD/svg10.dtd">
<svg version="1.0" xmlns="http://www.w3.org/2000/svg"
 width="300.000000pt" height="361.000000pt" viewBox="0 0 300.000000 361.000000"
 preserveAspectRatio="xMidYMid meet">
<metadata>
Created by potrace 1.10, written by Peter Selinger 2001-2011
</metadata>
<g transform="translate(0.000000,361.000000) scale(0.100000,-0.100000)"
fill="#000000" stroke="none">
<path d="M1570 3108 c-35 -19 -78 -111 -89 -193 -7 -44 -7 -126 -1 -220 12
-189 12 -295 2 -295 -5 0 -16 62 -26 138 -30 245 -80 447 -120 487 -46 46
-174 41 -311 -10 -33 -12 -73 -25 -90 -29 -16 -4 -42 -18 -56 -32 -14 -13 -51
-33 -83 -45 -68 -23 -130 -70 -146 -109 -6 -15 -25 -40 -41 -56 -18 -17 -29
-38 -29 -55 0 -22 -6 -28 -32 -33 -35 -7 -68 -32 -68 -52 0 -7 -11 -26 -25
-42 -17 -20 -25 -42 -25 -67 0 -21 -9 -53 -21 -72 -15 -24 -20 -43 -15 -64 4
-19 0 -39 -9 -53 -9 -13 -13 -31 -9 -40 3 -9 1 -22 -5 -30 -16 -19 -41 -106
-41 -143 0 -17 -4 -35 -10 -38 -20 -12 -11 -128 12 -175 20 -38 30 -47 77 -63
30 -10 97 -21 150 -24 80 -5 118 -1 231 21 250 51 420 44 555 -19 94 -45 97
-53 140 -437 14 -125 34 -275 45 -335 32 -181 41 -319 29 -471 -5 -75 -16
-162 -24 -192 -8 -30 -13 -55 -12 -56 1 -1 25 -4 54 -7 l51 -6 12 72 c23 132
8 301 -49 577 -33 156 -57 304 -67 408 -33 346 15 448 244 523 84 28 115 33
228 37 84 3 164 -1 220 -9 49 -8 143 -14 209 -14 134 0 171 12 231 77 41 43
44 56 27 98 -9 23 -12 50 -8 77 4 31 2 49 -9 65 -9 12 -16 34 -16 49 0 14 -9
34 -20 44 -11 10 -20 26 -20 35 0 9 -7 25 -15 36 -8 10 -15 29 -15 42 0 27
-45 100 -77 125 -13 10 -23 29 -23 42 0 16 -10 31 -27 42 -38 24 -123 108
-123 121 0 6 -11 24 -25 40 -13 16 -29 41 -34 55 -6 14 -23 34 -38 43 -15 10
-35 26 -43 35 -8 10 -51 32 -95 49 -44 17 -111 46 -150 65 -155 77 -187 87
-270 92 -54 3 -88 0 -105 -9z m255 -72 c49 -20 108 -47 130 -60 22 -13 72 -35
111 -50 94 -35 146 -77 196 -156 23 -36 74 -99 112 -141 103 -110 152 -181
177 -257 12 -37 27 -74 34 -82 19 -23 49 -122 46 -155 -1 -16 3 -49 10 -73 12
-42 11 -44 -21 -77 -65 -67 -180 -80 -400 -45 -44 7 -135 10 -220 8 -131 -4
-154 -7 -240 -37 -129 -44 -181 -79 -232 -157 l-42 -64 -19 40 c-26 54 -82 97
-170 128 -66 24 -85 27 -222 27 -126 0 -173 -5 -290 -29 -117 -24 -154 -27
-225 -22 -155 12 -195 35 -206 120 -7 51 3 110 43 243 13 45 28 108 33 141 4
33 15 73 24 90 9 17 16 43 16 58 0 32 56 124 75 124 21 0 75 50 75 68 0 10 24
48 53 87 47 62 59 72 122 98 39 16 84 39 100 51 33 24 152 69 230 87 50 11
136 13 167 3 37 -11 71 -129 117 -402 33 -194 49 -229 91 -202 13 8 16 55 20
292 5 266 6 285 27 324 12 22 32 46 45 52 40 21 135 7 233 -32z m-220 -2623
c-3 -29 -11 -53 -17 -53 -6 0 -8 10 -5 23 3 12 9 47 14 77 4 34 9 46 11 31 2
-14 1 -49 -3 -78z"/>
<path d="M1557 1316 c10 -13 24 -21 32 -18 11 4 13 1 7 -13 -7 -18 -6 -18 13
-1 14 12 26 16 38 10 16 -6 15 -8 -6 -12 l-25 -4 24 -18 c33 -25 21 -50 -25
-48 -33 1 -35 3 -36 37 l-1 36 -9 -33 c-7 -24 -7 -38 2 -48 6 -8 9 -23 6 -35
-4 -16 -3 -18 8 -9 9 8 26 9 47 4 31 -7 47 -7 123 0 36 3 65 -3 65 -15 0 -5
-7 -6 -15 -3 -8 4 -15 1 -15 -6 0 -8 9 -11 25 -8 13 3 22 2 20 -3 -3 -4 -1
-10 5 -14 13 -8 13 31 0 55 -8 14 -5 19 12 23 24 7 38 1 38 -14 0 -6 -9 -7
-22 -3 -22 6 -22 6 -3 -12 13 -13 20 -15 23 -6 6 18 22 15 23 -5 0 -11 3 -13
6 -5 7 18 31 15 36 -5 4 -17 5 -17 6 0 1 20 55 25 67 5 5 -8 11 -6 20 6 6 9
21 18 31 19 21 1 23 8 25 82 0 39 2 45 8 25 7 -22 8 -21 9 13 1 22 5 36 11 32
5 -3 203 -9 440 -12 396 -6 430 -5 430 10 0 16 -57 17 -730 17 l-731 0 18 -24z
m426 -6 l97 1 0 -55 c0 -67 -10 -75 -101 -78 l-63 -3 -9 44 c-6 32 -12 40 -20
32 -8 -8 -8 -14 1 -23 18 -18 14 -30 -5 -20 -10 5 -24 7 -30 5 -9 -3 -13 8
-13 35 0 33 -4 41 -22 46 -35 9 -1 28 37 20 17 -3 74 -5 128 -4z m-253 -43
c11 3 26 0 34 -6 10 -8 16 -9 21 -1 8 12 45 14 45 1 0 -5 -10 -12 -22 -16
l-23 -8 23 -4 c12 -2 22 -9 22 -14 0 -12 -37 -11 -45 1 -4 7 -11 8 -18 1 -7
-5 -29 -9 -50 -9 -32 0 -40 4 -48 25 -13 34 6 60 27 39 7 -8 23 -12 34 -9z"/>
<path d="M2750 1210 c-8 -5 -12 -11 -10 -12 3 -2 18 -12 33 -22 22 -13 27 -24
25 -44 -2 -22 -7 -26 -28 -24 -14 2 -31 9 -39 15 -12 10 -13 8 -8 -15 6 -23 4
-26 -16 -21 -12 2 -32 10 -45 16 -18 8 -25 8 -31 -2 -5 -8 -34 -12 -92 -10
-46 0 -88 0 -94 -1 -29 -7 -185 1 -181 9 8 12 -18 21 -43 14 -13 -3 -21 -1
-21 7 0 10 -3 10 -14 1 -8 -7 -23 -11 -33 -9 -10 2 -17 -2 -16 -8 1 -8 -21
-12 -65 -13 -47 -1 -63 2 -52 9 13 8 12 10 -2 10 -10 0 -18 -4 -18 -10 0 -5
-12 -10 -27 -10 -21 0 -24 3 -13 9 8 6 17 8 20 6 3 -2 7 8 8 22 1 15 -1 23 -5
19 -5 -4 -8 -13 -8 -19 0 -8 -20 -12 -53 -13 -29 0 -52 4 -52 10 0 5 -6 1 -14
-9 -17 -24 -61 -32 -52 -10 3 9 2 13 -4 10 -6 -4 -14 4 -19 17 l-10 23 -2 -25
c-1 -24 -2 -23 -9 5 l-8 30 -1 -27 c-1 -28 -23 -39 -36 -18 -5 8 -11 8 -20 0
-9 -8 -17 -6 -29 5 -15 15 -16 15 -16 0 0 -11 -5 -15 -15 -11 -15 5 -45 -18
-45 -35 0 -5 251 -10 613 -11 689 -3 797 -1 797 14 0 7 -15 9 -40 5 -24 -3
-40 -1 -40 5 0 6 -7 7 -16 4 -53 -20 -64 -19 -64 9 0 30 -14 61 -43 93 -23 25
-26 26 -47 12z"/>
<path d="M2166 1183 c-13 -13 -5 -23 19 -23 17 0 25 -6 26 -17 0 -14 2 -15 6
-3 3 8 11 19 17 23 7 6 5 7 -5 4 -9 -3 -26 1 -37 8 -10 8 -22 11 -26 8z"/>
<path d="M2081 1144 c-11 -14 -11 -18 3 -32 15 -15 16 -14 16 16 0 37 0 37
-19 16z"/>
<path d="M0 75 l0 -25 160 0 160 0 0 25 0 25 -160 0 -160 0 0 -25z m169 1 c11
-8 13 -8 7 2 -4 6 -3 12 1 12 5 0 15 -6 22 -12 10 -9 12 -9 7 -1 -4 8 7 11 39
10 28 -1 45 -6 45 -13 0 -19 -227 -16 -235 3 -4 12 6 14 48 12 28 -1 58 -7 66
-13z"/>
</g>
</svg>
