<svg xmlns="http://www.w3.org/2000/svg" xmlns:xlink="http://www.w3.org/1999/xlink" width="204" height="58.79" viewBox="0 0 201.703 38.031">
  <defs>
    <clipPath id="clip-path">
      <path id="Контур_3595" data-name="Контур 3595" d="M45.359,78.436a19.13,19.13,0,0,1,5.36-13.317,18.344,18.344,0,0,1,6.1-4.086,20.456,20.456,0,0,1,15.411-.025,18.047,18.047,0,0,1,6.062,4.047,18.587,18.587,0,0,1,3.9,6.025,19.281,19.281,0,0,1,1.415,7.355,19.167,19.167,0,0,1-5.358,13.325,18.356,18.356,0,0,1-6.113,4.078,19.7,19.7,0,0,1-7.719,1.518,19.213,19.213,0,0,1-9.875-2.563,17.964,17.964,0,0,1-6.788-6.871A19.182,19.182,0,0,1,45.359,78.436Zm6.738,0a13.833,13.833,0,0,0,1.568,6.538,12.1,12.1,0,0,0,10.859,6.513,11.989,11.989,0,0,0,10.795-6.475,13.95,13.95,0,0,0,1.556-6.577,13.754,13.754,0,0,0-1.581-6.54,12.185,12.185,0,0,0-4.454-4.746,12.161,12.161,0,0,0-17.2,4.709A14.028,14.028,0,0,0,52.1,78.436Z" transform="translate(-45.359 -59.514)" fill="none"/>
    </clipPath>
  </defs>
  <g id="Сгруппировать_2485" data-name="Сгруппировать 2485" transform="translate(-823.001 -968.71)">
    <path id="Контур_3570" data-name="Контур 3570" d="M45.359,78.429a19.139,19.139,0,0,1,5.36-13.317,18.373,18.373,0,0,1,6.1-4.086A20.46,20.46,0,0,1,72.231,61a18.115,18.115,0,0,1,6.06,4.047,18.617,18.617,0,0,1,3.9,6.027,19.271,19.271,0,0,1,1.415,7.353,19.167,19.167,0,0,1-5.358,13.325,18.361,18.361,0,0,1-6.113,4.08,19.738,19.738,0,0,1-7.719,1.517,19.237,19.237,0,0,1-9.875-2.563,17.982,17.982,0,0,1-6.788-6.873A19.177,19.177,0,0,1,45.359,78.429Zm6.738,0a13.833,13.833,0,0,0,1.568,6.538,12.1,12.1,0,0,0,10.859,6.513,11.979,11.979,0,0,0,10.795-6.475,13.944,13.944,0,0,0,1.556-6.577,13.752,13.752,0,0,0-1.581-6.538,12.19,12.19,0,0,0-4.454-4.748,12.161,12.161,0,0,0-17.2,4.709A14.028,14.028,0,0,0,52.1,78.429Z" transform="translate(833.271 909.379)" fill="#ffdf00"/>
    <g id="Сгруппировать_1848" data-name="Сгруппировать 1848" transform="translate(878.631 968.898)">
      <g id="Сгруппировать_1847" data-name="Сгруппировать 1847">
        <g id="Сгруппировать_1846" data-name="Сгруппировать 1846" clip-path="url(#clip-path)">
          <g id="Сгруппировать_1845" data-name="Сгруппировать 1845" transform="translate(-8.327 -10.578)">
            <path id="Контур_3571" data-name="Контур 3571" d="M50.342,76.6a2.2,2.2,0,0,0-2.2,2.2v4.067a2.2,2.2,0,1,0,4.4,0V78.8A2.2,2.2,0,0,0,50.342,76.6Z" transform="translate(-34.429 -32.951)" fill="#dd2970"/>
            <path id="Контур_3572" data-name="Контур 3572" d="M53.414,73.527a2.2,2.2,0,0,0-2.2,2.2v4.069a2.2,2.2,0,0,0,4.4,0V75.726A2.2,2.2,0,0,0,53.414,73.527Z" transform="translate(-31.553 -35.826)" fill="#e74e00"/>
            <path id="Контур_3573" data-name="Контур 3573" d="M56.488,70.453a2.2,2.2,0,0,0-2.2,2.2V76.72a2.2,2.2,0,0,0,4.4,0V72.652A2.2,2.2,0,0,0,56.488,70.453Z" transform="translate(-28.677 -38.702)" fill="#229fb7"/>
            <path id="Контур_3574" data-name="Контур 3574" d="M53.884,80.142a2.2,2.2,0,0,0-2.2,2.2v4.067a2.2,2.2,0,1,0,4.4,0V82.343A2.2,2.2,0,0,0,53.884,80.142Z" transform="translate(-31.115 -29.637)" fill="#368b27"/>
            <path id="Контур_3575" data-name="Контур 3575" d="M56.956,77.069a2.2,2.2,0,0,0-2.2,2.2v4.069a2.2,2.2,0,0,0,4.4,0V79.268A2.2,2.2,0,0,0,56.956,77.069Z" transform="translate(-28.239 -32.512)" fill="#dc0022"/>
            <path id="Контур_3576" data-name="Контур 3576" d="M60.03,73.995a2.2,2.2,0,0,0-2.2,2.2v4.069a2.2,2.2,0,0,0,4.4,0V76.194A2.2,2.2,0,0,0,60.03,73.995Z" transform="translate(-25.363 -35.388)" fill="#ffdf00"/>
            <path id="Контур_3577" data-name="Контур 3577" d="M43.258,69.516a2.2,2.2,0,0,0-2.2,2.2v4.067a2.2,2.2,0,1,0,4.4,0V71.717A2.2,2.2,0,0,0,43.258,69.516Z" transform="translate(-41.057 -39.578)" fill="#dd2970"/>
            <path id="Контур_3578" data-name="Контур 3578" d="M46.33,66.442a2.2,2.2,0,0,0-2.2,2.2v4.067a2.2,2.2,0,1,0,4.4,0V68.643A2.2,2.2,0,0,0,46.33,66.442Z" transform="translate(-38.181 -42.454)" fill="#e74e00"/>
            <path id="Контур_3579" data-name="Контур 3579" d="M49.4,63.369a2.2,2.2,0,0,0-2.2,2.2v4.069a2.2,2.2,0,0,0,4.4,0V65.568A2.2,2.2,0,0,0,49.4,63.369Z" transform="translate(-35.306 -45.329)" fill="#229fb7"/>
            <path id="Контур_3580" data-name="Контур 3580" d="M46.8,73.058a2.2,2.2,0,0,0-2.2,2.2v4.067a2.2,2.2,0,1,0,4.4,0V75.259A2.2,2.2,0,0,0,46.8,73.058Z" transform="translate(-37.743 -36.264)" fill="#368b27"/>
            <path id="Контур_3581" data-name="Контур 3581" d="M49.872,69.984a2.2,2.2,0,0,0-2.2,2.2v4.067a2.2,2.2,0,1,0,4.4,0V72.185A2.2,2.2,0,0,0,49.872,69.984Z" transform="translate(-34.867 -39.14)" fill="#dc0022"/>
            <path id="Контур_3582" data-name="Контур 3582" d="M52.946,66.911a2.2,2.2,0,0,0-2.2,2.2v4.069a2.2,2.2,0,0,0,4.4,0V69.11A2.2,2.2,0,0,0,52.946,66.911Z" transform="translate(-31.991 -42.015)" fill="#ffdf00"/>
            <path id="Контур_3583" data-name="Контур 3583" d="M59.66,67.281a2.2,2.2,0,0,0-2.2,2.2v4.069a2.2,2.2,0,0,0,4.4,0V69.48A2.2,2.2,0,0,0,59.66,67.281Z" transform="translate(-25.71 -41.669)" fill="#dd2970"/>
            <path id="Контур_3584" data-name="Контур 3584" d="M62.735,64.207a2.2,2.2,0,0,0-2.2,2.2v4.067a2.2,2.2,0,1,0,4.4,0V66.408A2.2,2.2,0,0,0,62.735,64.207Z" transform="translate(-22.835 -44.545)" fill="#e74e00"/>
            <path id="Контур_3585" data-name="Контур 3585" d="M65.809,61.133a2.2,2.2,0,0,0-2.2,2.2V67.4a2.2,2.2,0,1,0,4.4,0V63.334A2.2,2.2,0,0,0,65.809,61.133Z" transform="translate(-19.959 -47.421)" fill="#229fb7"/>
            <path id="Контур_3586" data-name="Контур 3586" d="M63.2,70.823a2.2,2.2,0,0,0-2.2,2.2V77.09a2.2,2.2,0,0,0,4.4,0V73.022A2.2,2.2,0,0,0,63.2,70.823Z" transform="translate(-22.396 -38.355)" fill="#368b27"/>
            <path id="Контур_3587" data-name="Контур 3587" d="M66.277,67.749a2.2,2.2,0,0,0-2.2,2.2v4.067a2.2,2.2,0,0,0,4.4,0V69.95A2.2,2.2,0,0,0,66.277,67.749Z" transform="translate(-19.521 -41.231)" fill="#dc0022"/>
            <path id="Контур_3588" data-name="Контур 3588" d="M69.351,64.675a2.2,2.2,0,0,0-2.2,2.2v4.067a2.2,2.2,0,0,0,4.4,0V66.876A2.2,2.2,0,0,0,69.351,64.675Z" transform="translate(-16.645 -44.107)" fill="#ffdf00"/>
            <path id="Контур_3589" data-name="Контур 3589" d="M52.576,60.2a2.2,2.2,0,0,0-2.2,2.2v4.069a2.2,2.2,0,0,0,4.4,0V62.4A2.2,2.2,0,0,0,52.576,60.2Z" transform="translate(-32.337 -48.297)" fill="#dd2970"/>
            <path id="Контур_3590" data-name="Контур 3590" d="M55.651,57.123a2.2,2.2,0,0,0-2.2,2.2V63.39a2.2,2.2,0,0,0,4.4,0V59.322A2.2,2.2,0,0,0,55.651,57.123Z" transform="translate(-29.462 -51.173)" fill="#e74e00"/>
            <path id="Контур_3591" data-name="Контур 3591" d="M58.725,54.049a2.2,2.2,0,0,0-2.2,2.2v4.067a2.2,2.2,0,1,0,4.4,0V56.25A2.2,2.2,0,0,0,58.725,54.049Z" transform="translate(-26.586 -54.049)" fill="#229fb7"/>
            <path id="Контур_3592" data-name="Контур 3592" d="M56.118,63.739a2.2,2.2,0,0,0-2.2,2.2v4.069a2.2,2.2,0,0,0,4.4,0V65.938A2.2,2.2,0,0,0,56.118,63.739Z" transform="translate(-29.023 -44.983)" fill="#368b27"/>
            <path id="Контур_3593" data-name="Контур 3593" d="M59.193,60.665a2.2,2.2,0,0,0-2.2,2.2v4.067a2.2,2.2,0,1,0,4.4,0V62.864A2.2,2.2,0,0,0,59.193,60.665Z" transform="translate(-26.148 -47.859)" fill="#dc0022"/>
            <path id="Контур_3594" data-name="Контур 3594" d="M62.267,57.591a2.2,2.2,0,0,0-2.2,2.2v4.067a2.2,2.2,0,1,0,4.4,0V59.792A2.2,2.2,0,0,0,62.267,57.591Z" transform="translate(-23.272 -50.735)" fill="#ffdf00"/>
          </g>
        </g>
      </g>
    </g>
    <path id="Контур_3596" data-name="Контур 3596" d="M16.618,96.28V59.68H33.043q6.335,0,9.579,3.23a8.319,8.319,0,0,1,2.452,6.153q0,5.464-5.232,8.17a12.228,12.228,0,0,1,5.373,3.292,8.307,8.307,0,0,1,1.876,5.724,8.578,8.578,0,0,1-3.651,7.427q-3.65,2.6-9.877,2.6Zm6.329-21.21h8.78a8.747,8.747,0,0,0,5.065-1.285A4.3,4.3,0,0,0,38.643,70a3.981,3.981,0,0,0-1.684-3.4,7.906,7.906,0,0,0-4.748-1.235H22.947Zm0,15.518H33.616a8.856,8.856,0,0,0,5.193-1.314,4.386,4.386,0,0,0,1.85-3.815,4.114,4.114,0,0,0-1.889-3.623,10.124,10.124,0,0,0-5.64-1.277H22.947Z" transform="translate(806.383 909.539)" fill="#107733"/>
    <path id="Контур_3597" data-name="Контур 3597" d="M37.385,96.28V59.68h6.43v36.6Z" transform="translate(825.813 909.539)" fill="#107733"/>
    <path id="Контур_3598" data-name="Контур 3598" d="M66.528,65.653V59.68H96.261v5.973H84.624V96.28H78.192V65.653Z" transform="translate(853.078 909.539)" fill="#107733"/>
    <path id="Контур_3599" data-name="Контур 3599" d="M86.187,80.762V59.68h6.432V80.542q0,5.034,2.437,7.744a8.674,8.674,0,0,0,6.8,2.71,8.818,8.818,0,0,0,6.776-2.607q2.436-2.607,2.437-7.591V59.68H117.5V80.431q0,8.013-4.2,12.225t-11.55,4.21q-7.273,0-11.42-4.134T86.187,80.762Z" transform="translate(871.471 909.539)" fill="#107733"/>
    <path id="Контур_3600" data-name="Контур 3600" d="M106.189,91.192,110.07,86.6a21.267,21.267,0,0,0,5.487,3.56,15.124,15.124,0,0,0,6.049,1.187,7.925,7.925,0,0,0,4.734-1.264,4.013,4.013,0,0,0,1.748-3.432,3.867,3.867,0,0,0-.639-2.284,6.045,6.045,0,0,0-2.437-1.736,28.564,28.564,0,0,0-5.168-1.62,39.684,39.684,0,0,1-5.232-1.545,15.707,15.707,0,0,1-3.74-2.054,7.483,7.483,0,0,1-2.45-3.05,10.868,10.868,0,0,1-.778-4.326,9.554,9.554,0,0,1,3.509-7.657,13.48,13.48,0,0,1,9-2.96,20.511,20.511,0,0,1,13.272,4.593l-3.445,4.876q-5.081-3.777-9.93-3.778a6.944,6.944,0,0,0-4.365,1.25,3.878,3.878,0,0,0-1.607,3.19,3.81,3.81,0,0,0,.728,2.4,6.389,6.389,0,0,0,2.565,1.736,34.793,34.793,0,0,0,5.385,1.632q6.1,1.481,8.933,3.92a8.579,8.579,0,0,1,2.834,6.877,9.743,9.743,0,0,1-3.612,7.988,14.528,14.528,0,0,1-9.457,2.936A22.176,22.176,0,0,1,106.189,91.192Z" transform="translate(890.184 909.293)" fill="#107733"/>
  </g>
</svg>
