 <svg  version="1.0" xmlns="http://www.w3.org/2000/svg"  width="900.000000pt" height="1083.000000pt" viewBox="0 0 900.000000 1083.000000"  preserveAspectRatio="xMidYMid meet">  <g transform="translate(0.000000,1083.000000) scale(0.100000,-0.100000)" fill="#e3f207" stroke="none"> <path d="M4865 9354 c-102 -14 -176 -39 -213 -73 -121 -112 -206 -335 -233 -619 -12 -122 -11 -179 11 -637 16 -345 23 -668 16 -717 -5 -31 -12 -48 -21 -48 -9 0 -16 17 -20 48 -3 26 -12 92 -20 147 -8 55 -21 152 -30 215 -35 252 -62 422 -90 560 -7 36 -21 103 -30 150 -9 47 -23 108 -31 136 -8 28 -14 58 -14 66 0 9 -7 40 -16 69 -8 30 -22 79 -31 109 -50 178 -109 289 -180 341 -59 42 -87 49 -242 60 -108 7 -146 6 -190 -5 -147 -38 -182 -45 -256 -51 -58 -5 -98 -16 -145 -37 -137 -64 -230 -99 -298 -112 -111 -20 -144 -37 -216 -111 -63 -64 -77 -74 -125 -84 -30 -6 -76 -25 -103 -41 -27 -17 -58 -30 -70 -30 -43 0 -129 -35 -156 -62 -15 -16 -62 -56 -105 -90 -71 -54 -83 -68 -118 -142 -26 -54 -59 -101 -98 -141 -92 -96 -105 -119 -111 -204 l-5 -75 -68 -12 c-38 -7 -88 -22 -111 -34 -50 -24 -116 -86 -116 -109 -1 -32 -42 -106 -86 -153 -65 -70 -76 -102 -68 -203 l7 -83 -39 -67 c-91 -157 -93 -164 -73 -264 11 -54 11 -58 -24 -131 -31 -64 -36 -84 -34 -135 2 -48 -2 -66 -19 -90 -12 -16 -29 -52 -37 -80 -60 -189 -71 -236 -74 -320 -4 -82 -7 -92 -36 -129 l-32 -40 3 -156 c4 -180 18 -255 67 -348 47 -90 62 -107 119 -137 149 -79 337 -114 657 -122 209 -6 319 4 484 42 116 27 293 62 445 89 316 56 744 55 995 0 235 -53 481 -171 551 -266 40 -54 104 -256 104 -328 0 -12 6 -58 14 -103 8 -45 22 -143 31 -217 8 -74 22 -187 30 -250 8 -63 21 -187 30 -275 8 -88 20 -198 26 -245 6 -47 15 -121 19 -165 8 -79 16 -136 46 -325 26 -165 44 -273 59 -350 8 -41 16 -91 19 -110 2 -19 8 -69 14 -110 62 -422 69 -800 27 -1285 -16 -178 -33 -292 -60 -390 -7 -27 -19 -76 -26 -109 -12 -54 -11 -60 6 -72 11 -8 29 -11 43 -7 53 13 138 8 181 -11 59 -27 71 -17 92 80 52 239 54 266 53 584 0 312 -1 322 -49 598 -31 173 -47 259 -60 317 -7 33 -21 96 -30 140 -9 44 -23 107 -30 140 -8 33 -21 96 -30 140 -9 44 -23 107 -30 140 -25 116 -36 187 -65 444 -6 46 -14 89 -19 95 -10 12 -30 176 -40 327 -4 59 -11 102 -20 113 -31 37 -48 512 -28 741 22 242 50 344 129 464 51 79 150 185 203 220 102 65 302 153 450 196 33 10 78 24 100 31 22 6 74 19 115 28 214 46 234 48 548 47 369 0 555 -18 832 -79 59 -13 129 -16 325 -16 224 0 258 3 325 22 88 24 163 52 205 75 17 9 40 20 52 26 36 16 158 138 199 197 36 52 39 62 39 124 0 56 -5 78 -33 133 -37 73 -38 85 -12 224 15 79 9 102 -52 204 -24 39 -28 57 -28 119 0 68 -2 74 -32 104 -18 17 -46 41 -61 53 -22 17 -30 33 -34 65 -6 53 -21 95 -47 131 -14 19 -22 52 -27 107 -5 61 -12 86 -32 112 -13 18 -35 53 -48 78 -44 82 -89 139 -137 172 -77 53 -92 74 -92 130 0 72 -24 114 -84 149 -28 16 -58 29 -67 29 -18 0 -57 39 -96 97 -15 22 -59 65 -97 95 -70 54 -91 84 -122 173 -12 33 -38 72 -80 116 -49 53 -66 79 -79 124 -10 35 -31 72 -52 95 -33 38 -101 80 -127 80 -7 0 -36 26 -63 58 -29 33 -67 65 -89 74 -63 26 -196 79 -239 95 -75 29 -110 42 -180 67 -38 14 -105 48 -147 76 -43 27 -82 50 -88 50 -5 0 -44 18 -84 40 -41 23 -110 51 -153 64 -44 13 -108 37 -144 54 -132 62 -178 80 -240 95 -63 16 -276 29 -334 21z"/> <path d="M4832 3991 c-118 -8 -152 -21 -119 -45 9 -7 17 -21 17 -30 0 -11 9 -16 29 -16 24 0 29 -5 35 -32 6 -29 7 -30 24 -15 26 24 77 32 112 17 52 -22 34 -56 -28 -52 -44 3 -39 -16 14 -45 47 -26 55 -27 48 -8 -7 17 56 85 79 85 9 0 19 -9 22 -20 4 -13 15 -20 30 -20 13 0 28 -7 33 -16 8 -14 10 -14 22 0 7 9 30 19 51 22 32 5 37 9 28 20 -8 9 -9 33 -5 67 10 86 3 90 -150 93 -71 1 -180 -1 -242 -5z"/> <path d="M5995 3984 c-55 -8 -86 -25 -75 -39 6 -7 10 -33 9 -57 -1 -42 37 -134 75 -177 7 -9 16 -28 20 -42 3 -15 17 -34 31 -43 14 -9 25 -23 25 -31 0 -9 10 -15 26 -15 23 0 25 -3 22 -32 -3 -29 0 -33 24 -36 33 -4 103 31 122 61 27 44 38 115 34 219 -3 87 -7 110 -29 148 -18 33 -30 44 -45 42 -22 -4 -24 -4 -129 2 -44 2 -93 2 -110 0z"/> <path d="M4686 3721 c-29 -89 -17 -160 36 -215 14 -15 22 -17 25 -8 7 18 107 16 123 -3 8 -9 29 -15 56 -15 23 0 46 -5 49 -10 4 -7 11 -8 18 -1 7 5 25 11 41 13 30 3 33 7 64 75 l19 41 -43 7 c-49 7 -71 33 -76 90 -2 21 -9 40 -17 43 -10 3 -11 -3 -6 -27 5 -23 1 -40 -15 -66 l-21 -34 -110 1 -109 1 0 73 c0 40 -4 75 -9 78 -5 3 -16 -16 -25 -43z"/> <path d="M4797 3763 c-9 -9 -9 -61 1 -66 4 -3 28 -8 55 -12 38 -6 47 -4 47 8 0 8 -14 20 -31 27 -17 8 -39 22 -48 32 -10 10 -21 15 -24 11z"/> <path d="M5077 3734 c-13 -13 -7 -52 8 -58 17 -6 29 13 23 40 -3 19 -20 28 -31 18z"/> <path d="M5194 3719 c-10 -17 13 -36 27 -22 12 12 4 33 -11 33 -5 0 -12 -5 -16 -11z"/> <path d="M8250 3626 c-114 -39 -160 -78 -147 -125 3 -12 1 -24 -5 -27 -6 -4 -8 -24 -4 -48 8 -51 105 -198 141 -214 15 -7 73 -12 134 -12 129 0 133 3 139 95 7 102 -37 211 -110 280 -72 67 -86 72 -148 51z"/> </g> </svg> 